<svg width="88" height="88" viewBox="0 0 88 88" fill="none" xmlns="http://www.w3.org/2000/svg">
<g id="1_&#208;&#156;&#208;&#190;&#208;&#189;&#209;&#130;&#208;&#176;&#208;&#182;&#208;&#189;&#208;&#176;&#209;&#143; &#208;&#190;&#208;&#177;&#208;&#187;&#208;&#176;&#209;&#129;&#209;&#130;&#209;&#140; 1 1">
<g id="Group 72">
<g id="Group 68">
<path id="Vector" d="M83.2297 26.8079H30.0269V60.2497H83.2297V26.8079Z" fill="white" stroke="black" stroke-width="2" stroke-linecap="round" stroke-linejoin="round"/>
<path id="Vector_2" d="M37.1206 32.8883H66.5089" stroke="black" stroke-width="2" stroke-linecap="round" stroke-linejoin="round"/>
<path id="Vector_3" d="M37.1206 36.4353H57.8951" stroke="black" stroke-width="2" stroke-linecap="round" stroke-linejoin="round"/>
<path id="Vector_4" d="M37.1206 43.0219H49.788" stroke="black" stroke-width="2" stroke-linecap="round" stroke-linejoin="round"/>
<path id="Vector_5" d="M37.1206 46.5688H49.788" stroke="black" stroke-width="2" stroke-linecap="round" stroke-linejoin="round"/>
<path id="Vector_6" d="M78.1628 43.0219H61.4419V54.1691H78.1628V43.0219Z" fill="#0887E2" stroke="black" stroke-width="2" stroke-linecap="round" stroke-linejoin="round"/>
<path id="Vector_7" d="M71.0692 53.9161H62.4453L66.7573 46.4474L69.7974 51.7119L71.0692 53.9161Z" fill="white" stroke="black" stroke-width="2" stroke-linecap="round" stroke-linejoin="round"/>
<path id="Vector_8" d="M71.5757 48.6412L69.8022 51.7118L71.069 53.9159H74.6158L71.5757 48.6412Z" fill="white" stroke="black" stroke-width="2" stroke-linecap="round" stroke-linejoin="round"/>
<path id="Vector_9" d="M74.6156 47.0758C74.8954 47.0758 75.1223 46.8489 75.1223 46.5691C75.1223 46.2892 74.8954 46.0624 74.6156 46.0624C74.3357 46.0624 74.1089 46.2892 74.1089 46.5691C74.1089 46.8489 74.3357 47.0758 74.6156 47.0758Z" fill="white" stroke="white" stroke-width="2" stroke-linecap="round" stroke-linejoin="round"/>
<path id="Vector_10" d="M85.2564 23.2611H28V26.808H85.2564V23.2611Z" fill="white" stroke="black" stroke-width="2" stroke-linecap="round" stroke-linejoin="round"/>
</g>
<line id="Line 9" x1="57.7329" y1="60.2196" x2="57.7329" y2="64.2944" stroke="black" stroke-width="2"/>
<g id="Group 69">
<line id="Line 10" x1="34.3892" y1="19.7701" x2="34.3892" y2="22.5464" stroke="black" stroke-width="2" stroke-linecap="round" stroke-linejoin="round"/>
<line id="Line 11" x1="80.1992" y1="19.7699" x2="80.1992" y2="22.5462" stroke="black" stroke-width="2" stroke-linecap="round" stroke-linejoin="round"/>
</g>
<circle id="Ellipse 2" cx="57.5474" cy="65.9245" r="1.44489" stroke="black" stroke-width="2"/>
</g>
<g id="Group 71">
<g id="Group 68_2">
<path id="Vector_11" d="M77.0173 25.0513H18.2393V61.9975H77.0173V25.0513Z" fill="white" stroke="black" stroke-width="2" stroke-linecap="round" stroke-linejoin="round"/>
<path id="Vector_12" d="M26.0762 31.7688H58.5441" stroke="black" stroke-width="2" stroke-linecap="round" stroke-linejoin="round"/>
<path id="Vector_13" d="M26.0762 35.6874H49.0276" stroke="black" stroke-width="2" stroke-linecap="round" stroke-linejoin="round"/>
<path id="Vector_14" d="M26.0762 42.9645H40.071" stroke="black" stroke-width="2" stroke-linecap="round" stroke-linejoin="round"/>
<path id="Vector_15" d="M26.0762 46.8831H40.071" stroke="black" stroke-width="2" stroke-linecap="round" stroke-linejoin="round"/>
<path id="Vector_16" d="M71.4194 42.9645H52.9463V55.2799H71.4194V42.9645Z" fill="#0887E2" stroke="black" stroke-width="2" stroke-linecap="round" stroke-linejoin="round"/>
<path id="Vector_17" d="M63.5823 55.0001H54.0547L58.8185 46.7488L62.1772 52.565L63.5823 55.0001Z" fill="white" stroke="black" stroke-width="2" stroke-linecap="round" stroke-linejoin="round"/>
<path id="Vector_18" d="M64.1419 49.1727L62.1826 52.5651L63.5821 55.0002H67.5006L64.1419 49.1727Z" fill="white" stroke="black" stroke-width="2" stroke-linecap="round" stroke-linejoin="round"/>
<path id="Vector_19" d="M67.5007 47.4431C67.8099 47.4431 68.0605 47.1924 68.0605 46.8833C68.0605 46.5741 67.8099 46.3235 67.5007 46.3235C67.1915 46.3235 66.9409 46.5741 66.9409 46.8833C66.9409 47.1924 67.1915 47.4431 67.5007 47.4431Z" fill="white" stroke="white" stroke-width="2" stroke-linecap="round" stroke-linejoin="round"/>
<path id="Vector_20" d="M79.2564 21.1328H16V25.0514H79.2564V21.1328Z" fill="white" stroke="black" stroke-width="2" stroke-linecap="round" stroke-linejoin="round"/>
</g>
<line id="Line 9_2" x1="48.7437" y1="61.9645" x2="48.7437" y2="66.4663" stroke="black" stroke-width="2"/>
<g id="Group 69_2">
<line id="Line 10_2" x1="22.9541" y1="17.1713" x2="22.9541" y2="20.4481" stroke="black" stroke-width="2" stroke-linecap="round" stroke-linejoin="round"/>
<line id="Line 11_2" x1="73.5645" y1="17.1711" x2="73.5645" y2="20.448" stroke="black" stroke-width="2" stroke-linecap="round" stroke-linejoin="round"/>
</g>
<circle id="Ellipse 2_2" cx="48.644" cy="68.267" r="1.70109" stroke="black" stroke-width="2"/>
</g>
<g id="Group 70">
<g id="Group 68_3">
<path id="Vector_21" d="M69.7693 23.0021H4.48682V64.0368H69.7693V23.0021Z" fill="white" stroke="black" stroke-width="2" stroke-linecap="round" stroke-linejoin="round"/>
<path id="Vector_22" d="M13.1914 30.463H49.2522" stroke="black" stroke-width="2" stroke-linecap="round" stroke-linejoin="round"/>
<path id="Vector_23" d="M13.1914 34.8152H38.6827" stroke="black" stroke-width="2" stroke-linecap="round" stroke-linejoin="round"/>
<path id="Vector_24" d="M13.1914 42.8977H28.7349" stroke="black" stroke-width="2" stroke-linecap="round" stroke-linejoin="round"/>
<path id="Vector_25" d="M13.1914 47.2499H28.7349" stroke="black" stroke-width="2" stroke-linecap="round" stroke-linejoin="round"/>
<path id="Vector_26" d="M63.552 42.8977H43.0347V56.5759H63.552V42.8977Z" fill="#0887E2" stroke="black" stroke-width="2" stroke-linecap="round" stroke-linejoin="round"/>
<path id="Vector_27" d="M54.8476 56.2653H44.2656L49.5566 47.1008L53.287 53.5607L54.8476 56.2653Z" fill="white" stroke="black" stroke-width="2" stroke-linecap="round" stroke-linejoin="round"/>
<path id="Vector_28" d="M55.4695 49.7927L53.2935 53.5605L54.8478 56.265H59.2L55.4695 49.7927Z" fill="white" stroke="black" stroke-width="2" stroke-linecap="round" stroke-linejoin="round"/>
<path id="Vector_29" d="M59.1999 47.8718C59.5432 47.8718 59.8216 47.5934 59.8216 47.25C59.8216 46.9067 59.5432 46.6283 59.1999 46.6283C58.8565 46.6283 58.5781 46.9067 58.5781 47.25C58.5781 47.5934 58.8565 47.8718 59.1999 47.8718Z" fill="white" stroke="white" stroke-width="2" stroke-linecap="round" stroke-linejoin="round"/>
<path id="Vector_30" d="M72.2564 18.65H2V23.0022H72.2564V18.65Z" fill="white" stroke="black" stroke-width="2" stroke-linecap="round" stroke-linejoin="round"/>
</g>
<line id="Line 9_3" x1="38.2563" y1="64" x2="38.2563" y2="69" stroke="black" stroke-width="2"/>
<g id="Group 69_3">
<line id="Line 10_3" x1="9.61279" y1="14.1392" x2="9.61279" y2="17.9999" stroke="black" stroke-width="2" stroke-linecap="round" stroke-linejoin="round"/>
<line id="Line 11_3" x1="65.8237" y1="14.1392" x2="65.8237" y2="17.9999" stroke="black" stroke-width="2" stroke-linecap="round" stroke-linejoin="round"/>
</g>
<circle id="Ellipse 2_3" cx="38.2563" cy="71" r="2" stroke="black" stroke-width="2"/>
</g>
</g>
</svg>
