<svg width="88" height="88" viewBox="0 0 88 88" fill="none" xmlns="http://www.w3.org/2000/svg">
<g id="1_&#208;&#156;&#208;&#190;&#208;&#189;&#209;&#130;&#208;&#176;&#208;&#182;&#208;&#189;&#208;&#176;&#209;&#143; &#208;&#190;&#208;&#177;&#208;&#187;&#208;&#176;&#209;&#129;&#209;&#130;&#209;&#140; 1 &#208;&#186;&#208;&#190;&#208;&#191;&#208;&#184;&#209;&#143; 1">
<g id="Group 58">
<path id="Vector" d="M84.0514 29.0006L69.7288 34.3708L55.4062 29.0006L69.7288 21.6672L84.0514 29.0006Z" fill="#0887E2" stroke="black" stroke-width="2" stroke-linecap="round" stroke-linejoin="round"/>
<path id="Vector_2" d="M82.3141 50.1205L81.75 49.9513L69.7121 46.1887L57.6741 49.9513L57.11 50.1205C56.6861 50.311 56.3263 50.62 56.0741 51.0104C55.8218 51.4008 55.6879 51.8558 55.6885 52.3205V66.3272H83.7075V52.3205C83.7105 51.8588 83.5807 51.406 83.3337 51.016C83.0867 50.626 82.7328 50.3151 82.3141 50.1205Z" fill="#0887E2" stroke="black" stroke-width="2" stroke-linecap="round" stroke-linejoin="round"/>
<path id="Vector_3" d="M73.2316 42.2513H66.2254L65.3511 47.0631C65.3511 48.2241 65.8123 49.3375 66.6332 50.1584C67.4541 50.9794 68.5675 51.4406 69.7285 51.4406C70.8895 51.4406 72.0029 50.9794 72.8238 50.1584C73.6448 49.3375 74.1059 48.2241 74.1059 47.0631L73.2316 42.2513Z" fill="white" stroke="black" stroke-width="2" stroke-linecap="round" stroke-linejoin="round"/>
<path id="Vector_4" d="M71.9175 29.1134H67.54C65.1224 29.1134 63.1626 31.0732 63.1626 33.4908V40.497C63.1626 42.9146 65.1224 44.8744 67.54 44.8744H71.9175C74.3351 44.8744 76.2949 42.9146 76.2949 40.497V33.4908C76.2949 31.0732 74.3351 29.1134 71.9175 29.1134Z" fill="white" stroke="black" stroke-width="2" stroke-linecap="round" stroke-linejoin="round"/>
<path id="Vector_5" d="M69.7288 27.3646C66.1016 27.3646 63.1626 28.1487 63.1626 29.1133V33.4908C63.1626 32.5262 66.1016 31.7421 69.7288 31.7421C73.3559 31.7421 76.2949 32.5262 76.2949 33.4908V29.1133C76.2949 28.1487 73.3334 27.3646 69.7288 27.3646Z" fill="#0887E2" stroke="black" stroke-width="2" stroke-linecap="round" stroke-linejoin="round"/>
</g>
<g id="Group 56">
<path id="Vector_6" d="M64.511 27.5339L48.7838 33.4231L33.0566 27.5339L48.7838 19.4841L64.511 27.5339Z" fill="#0887E2" stroke="black" stroke-width="2" stroke-linecap="round" stroke-linejoin="round"/>
<path id="Vector_7" d="M62.6157 50.7185L62.0121 50.5323L48.7839 46.4031L35.5388 50.5323L34.9747 50.7185C34.5087 50.9268 34.1131 51.2657 33.8358 51.6942C33.5585 52.1227 33.4113 52.6224 33.4121 53.1328V68.5159H64.1783V53.1328C64.1791 52.6224 64.0319 52.1227 63.7546 51.6942C63.4773 51.2657 63.0817 50.9268 62.6157 50.7185Z" fill="#0887E2" stroke="black" stroke-width="2" stroke-linecap="round" stroke-linejoin="round"/>
<path id="Vector_8" d="M52.6308 42.0764H44.9365L44.0001 47.3846C43.9549 48.042 44.0455 48.7015 44.266 49.3224C44.4865 49.9433 44.8324 50.5122 45.282 50.9938C45.7317 51.4754 46.2756 51.8594 46.8799 52.1219C47.4842 52.3844 48.136 52.5199 48.7949 52.5199C49.4538 52.5199 50.1056 52.3844 50.71 52.1219C51.3143 51.8594 51.8582 51.4754 52.3078 50.9938C52.7575 50.5122 53.1033 49.9433 53.3239 49.3224C53.5444 48.7015 53.6349 48.042 53.5898 47.3846L52.6308 42.0764Z" fill="white" stroke="black" stroke-width="2" stroke-linecap="round" stroke-linejoin="round"/>
<path id="Vector_9" d="M51.1927 27.658H46.3809C43.7265 27.658 41.5747 29.8097 41.5747 32.4641V40.1585C41.5747 42.8128 43.7265 44.9646 46.3809 44.9646H51.1927C53.847 44.9646 55.9988 42.8128 55.9988 40.1585V32.4641C55.9988 29.8097 53.847 27.658 51.1927 27.658Z" fill="white" stroke="black" stroke-width="2" stroke-linecap="round" stroke-linejoin="round"/>
<path id="Vector_10" d="M48.7839 25.7344C44.8014 25.7344 41.5747 26.5918 41.5747 27.658V32.4641C41.5747 31.4036 44.8014 30.5405 48.7839 30.5405C52.7665 30.5405 55.9932 31.4036 55.9932 32.4641V27.641C55.9932 26.5918 52.7665 25.7344 48.7839 25.7344Z" fill="#0887E2" stroke="black" stroke-width="2" stroke-linecap="round" stroke-linejoin="round"/>
</g>
<g id="Group 57">
<path id="Vector_11" d="M43.8362 24.6738L25.3844 31.5897L6.93262 24.6738L25.3844 15.2307L43.8362 24.6738Z" fill="#0887E2" stroke="black" stroke-width="2" stroke-linecap="round" stroke-linejoin="round"/>
<path id="Vector_12" d="M41.6022 51.8974L40.8971 51.6774L25.3843 46.8204L9.87147 51.6661L9.16634 51.8974C8.62148 52.1409 8.15858 52.5366 7.83333 53.037C7.50808 53.5374 7.33434 54.1211 7.33301 54.7179V68.7692C7.33301 70.9783 9.12387 72.7692 11.333 72.7692H39.4356C41.6447 72.7692 43.4356 70.9783 43.4356 68.7692V54.7179C43.4342 54.1211 43.2605 53.5374 42.9353 53.037C42.61 52.5366 42.1471 52.1409 41.6022 51.8974Z" fill="#0887E2" stroke="black" stroke-width="2" stroke-linecap="round" stroke-linejoin="round"/>
<path id="Vector_13" d="M29.897 41.7435H20.8714L19.7432 47.9487C19.7432 49.4448 20.3375 50.8796 21.3954 51.9375C22.4533 52.9954 23.8881 53.5897 25.3842 53.5897C26.8803 53.5897 28.3151 52.9954 29.373 51.9375C30.4309 50.8796 31.0252 49.4448 31.0252 47.9487L29.897 41.7435Z" fill="white" stroke="black" stroke-width="2" stroke-linecap="round" stroke-linejoin="round"/>
<path id="Vector_14" d="M28.2049 24.8204H22.5639C19.4484 24.8204 16.9229 27.346 16.9229 30.4615V39.4871C16.9229 42.6025 19.4484 45.1281 22.5639 45.1281H28.2049C31.3204 45.1281 33.8459 42.6025 33.8459 39.4871V30.4615C33.8459 27.346 31.3204 24.8204 28.2049 24.8204Z" fill="white" stroke="black" stroke-width="2" stroke-linecap="round" stroke-linejoin="round"/>
<path id="Vector_15" d="M25.3844 22.5641C20.7136 22.5641 16.9229 23.5738 16.9229 24.8205V30.4615C16.9229 29.2149 20.7136 28.2051 25.3844 28.2051C30.0552 28.2051 33.8459 29.2149 33.8459 30.4615V24.8205C33.8459 23.5738 30.0552 22.5641 25.3844 22.5641Z" fill="#0887E2" stroke="black" stroke-width="2" stroke-linecap="round" stroke-linejoin="round"/>
<path id="Vector_16" d="M6.76904 24.8204V35.5384" stroke="black" stroke-width="2" stroke-linecap="round" stroke-linejoin="round"/>
</g>
</g>
</svg>
