<svg width="88" height="88" viewBox="0 0 88 88" fill="none" xmlns="http://www.w3.org/2000/svg">
<g id="1_&#208;&#156;&#208;&#190;&#208;&#189;&#209;&#130;&#208;&#176;&#208;&#182;&#208;&#189;&#208;&#176;&#209;&#143; &#208;&#190;&#208;&#177;&#208;&#187;&#208;&#176;&#209;&#129;&#209;&#130;&#209;&#140; 1 1">
<path id="Vector" d="M79.5384 10.1538H20.3076V47.3846H79.5384V10.1538Z" fill="white" stroke="black" stroke-width="2" stroke-linecap="round" stroke-linejoin="round"/>
<path id="Vector_2" d="M28.2051 16.9231H60.923" stroke="black" stroke-width="2" stroke-linecap="round" stroke-linejoin="round"/>
<path id="Vector_3" d="M28.2051 20.8718H51.3333" stroke="black" stroke-width="2" stroke-linecap="round" stroke-linejoin="round"/>
<path id="Vector_4" d="M28.2051 28.2052H42.3076" stroke="black" stroke-width="2" stroke-linecap="round" stroke-linejoin="round"/>
<path id="Vector_5" d="M28.2051 32.1538H42.3076" stroke="black" stroke-width="2" stroke-linecap="round" stroke-linejoin="round"/>
<path id="Vector_6" d="M73.8976 28.2052H55.2822V40.6155H73.8976V28.2052Z" fill="#0887E2" stroke="black" stroke-width="2" stroke-linecap="round" stroke-linejoin="round"/>
<path id="Vector_7" d="M65.9999 40.3333H56.3989L61.1994 32.0184L64.584 37.8795L65.9999 40.3333Z" fill="white" stroke="black" stroke-width="2" stroke-linecap="round" stroke-linejoin="round"/>
<path id="Vector_8" d="M66.5642 34.4611L64.5898 37.8795L66.0001 40.3334H69.9488L66.5642 34.4611Z" fill="white" stroke="black" stroke-width="2" stroke-linecap="round" stroke-linejoin="round"/>
<path id="Vector_9" d="M69.9489 32.7179C70.2604 32.7179 70.513 32.4654 70.513 32.1538C70.513 31.8423 70.2604 31.5897 69.9489 31.5897C69.6373 31.5897 69.3848 31.8423 69.3848 32.1538C69.3848 32.4654 69.6373 32.7179 69.9489 32.7179Z" fill="white" stroke="white" stroke-width="2" stroke-linecap="round" stroke-linejoin="round"/>
<path id="Vector_10" d="M81.7949 6.2052H18.0513V10.1539H81.7949V6.2052Z" fill="white" stroke="black" stroke-width="2" stroke-linecap="round" stroke-linejoin="round"/>
<path id="Vector_11" d="M45.6309 40.774L44.7848 37.7842C44.6509 37.3194 44.3383 36.9265 43.9153 36.6918C43.4924 36.4571 42.9936 36.3996 42.5283 36.5319L28.4813 41.4841L17.4869 38.3139C17.4869 38.3139 10.7177 42.3078 8.7433 43.436C7.89715 43.9195 7.66691 44.0999 7.31391 44.6447C7.07044 45.0204 6.94184 45.459 6.94387 45.9067V57.719H28.0357L29.2993 48.4395L44.3786 43.0304C44.6096 42.9654 44.8254 42.8553 45.0136 42.7065C45.2018 42.5577 45.3587 42.373 45.4751 42.1632C45.5916 41.9534 45.6653 41.7226 45.692 41.4842C45.7188 41.2457 45.698 41.0043 45.6309 40.774Z" fill="#0887E2" stroke="black" stroke-width="2" stroke-linecap="round" stroke-linejoin="round"/>
<path id="Vector_12" d="M21.7066 35.781H14.9374L14.1025 40.4236C14.1025 40.9792 14.212 41.5293 14.4246 42.0426C14.6372 42.5559 14.9488 43.0223 15.3417 43.4152C15.7346 43.808 16.201 44.1197 16.7143 44.3323C17.2276 44.5449 17.7777 44.6543 18.3333 44.6543C18.8889 44.6543 19.4391 44.5449 19.9524 44.3323C20.4657 44.1197 20.932 43.808 21.3249 43.4152C21.7178 43.0223 22.0294 42.5559 22.242 42.0426C22.4546 41.5293 22.5641 40.9792 22.5641 40.4236L21.7066 35.781Z" fill="white" stroke="black" stroke-width="2" stroke-linecap="round" stroke-linejoin="round"/>
<path id="Vector_13" d="M20.7085 23.1282H15.9531C13.7723 23.1282 12.0044 24.8961 12.0044 27.0769V34.3651C12.0044 36.5459 13.7723 38.3138 15.9531 38.3138H20.7085C22.8893 38.3138 24.6572 36.5459 24.6572 34.3651V27.0769C24.6572 24.8961 22.8893 23.1282 20.7085 23.1282Z" fill="white" stroke="black" stroke-width="2" stroke-linecap="round" stroke-linejoin="round"/>
<path id="Vector_14" d="M26.5523 69.3847L26.1348 69.2549L16.923 66.3893L7.71123 69.2662L7.2938 69.3959C6.96928 69.541 6.69374 69.7769 6.50052 70.0753C6.3073 70.3736 6.20468 70.7215 6.20508 71.077V81.7949H27.641V71.077C27.6436 70.7196 27.542 70.3692 27.3486 70.0687C27.1553 69.7682 26.8785 69.5305 26.5523 69.3847Z" fill="white" stroke="black" stroke-width="2" stroke-linecap="round" stroke-linejoin="round"/>
<path id="Vector_15" d="M19.6025 63.3712H14.2435L13.5723 67.0604C13.5723 67.9491 13.9253 68.8014 14.5537 69.4298C15.1821 70.0582 16.0344 70.4112 16.923 70.4112C17.8117 70.4112 18.664 70.0582 19.2924 69.4298C19.9208 68.8014 20.2738 67.9491 20.2738 67.0604L19.6025 63.3712Z" fill="white" stroke="black" stroke-width="2" stroke-linecap="round" stroke-linejoin="round"/>
<path id="Vector_16" d="M19.1231 53.3246H14.7175C13.1598 53.3246 11.897 54.5874 11.897 56.1451V62.5646C11.897 64.1223 13.1598 65.3851 14.7175 65.3851H19.1231C20.6809 65.3851 21.9436 64.1223 21.9436 62.5646V56.1451C21.9436 54.5874 20.6809 53.3246 19.1231 53.3246Z" fill="white" stroke="black" stroke-width="2" stroke-linecap="round" stroke-linejoin="round"/>
<path id="Vector_17" d="M7.71138 69.2661L7.29395 69.3959C7.4269 69.3347 7.56721 69.2911 7.71138 69.2661Z" fill="white" stroke="black" stroke-width="2" stroke-linecap="round" stroke-linejoin="round"/>
<path id="Vector_18" d="M53.6294 69.3847L53.212 69.2549L44.0002 66.3893L34.7884 69.2662L34.3709 69.3959C34.0464 69.541 33.7709 69.7769 33.5777 70.0753C33.3845 70.3736 33.2818 70.7215 33.2822 71.077V81.7949H54.7181V71.077C54.7207 70.7196 54.6191 70.3692 54.4258 70.0687C54.2324 69.7682 53.9557 69.5305 53.6294 69.3847Z" fill="white" stroke="black" stroke-width="2" stroke-linecap="round" stroke-linejoin="round"/>
<path id="Vector_19" d="M46.6797 63.3712H41.3207L40.6494 67.0604C40.6494 67.9491 41.0024 68.8014 41.6308 69.4298C42.2592 70.0582 43.1115 70.4112 44.0002 70.4112C44.8889 70.4112 45.7411 70.0582 46.3695 69.4298C46.9979 68.8014 47.351 67.9491 47.351 67.0604L46.6797 63.3712Z" fill="white" stroke="black" stroke-width="2" stroke-linecap="round" stroke-linejoin="round"/>
<path id="Vector_20" d="M46.2003 53.3246H41.7946C40.2369 53.3246 38.9741 54.5874 38.9741 56.1451V62.5646C38.9741 64.1223 40.2369 65.3851 41.7946 65.3851H46.2003C47.758 65.3851 49.0208 64.1223 49.0208 62.5646V56.1451C49.0208 54.5874 47.758 53.3246 46.2003 53.3246Z" fill="white" stroke="black" stroke-width="2" stroke-linecap="round" stroke-linejoin="round"/>
<path id="Vector_21" d="M34.788 69.2661L34.3706 69.3959C34.5036 69.3347 34.6439 69.2911 34.788 69.2661Z" fill="white" stroke="black" stroke-width="2" stroke-linecap="round" stroke-linejoin="round"/>
<path id="Vector_22" d="M80.7061 69.3847L80.2887 69.2549L71.0769 66.3893L61.8651 69.2662L61.4477 69.3959C61.1214 69.5417 60.8446 69.7794 60.6513 70.08C60.4579 70.3805 60.3563 70.7309 60.3589 71.0883V81.8062H81.7948V71.077C81.7974 70.7196 81.6958 70.3692 81.5025 70.0687C81.3091 69.7682 81.0324 69.5305 80.7061 69.3847Z" fill="white" stroke="black" stroke-width="2" stroke-linecap="round" stroke-linejoin="round"/>
<path id="Vector_23" d="M73.7563 63.3712H68.3974L67.7261 67.0604C67.7261 67.9491 68.0791 68.8014 68.7075 69.4298C69.3359 70.0582 70.1882 70.4112 71.0768 70.4112C71.9655 70.4112 72.8178 70.0582 73.4462 69.4298C74.0746 68.8014 74.4276 67.9491 74.4276 67.0604L73.7563 63.3712Z" fill="white" stroke="black" stroke-width="2" stroke-linecap="round" stroke-linejoin="round"/>
<path id="Vector_24" d="M73.2769 53.3246H68.8713C67.3136 53.3246 66.0508 54.5874 66.0508 56.1451V62.5646C66.0508 64.1223 67.3136 65.3851 68.8713 65.3851H73.2769C74.8347 65.3851 76.0975 64.1223 76.0975 62.5646V56.1451C76.0975 54.5874 74.8347 53.3246 73.2769 53.3246Z" fill="white" stroke="black" stroke-width="2" stroke-linecap="round" stroke-linejoin="round"/>
<path id="Vector_25" d="M61.8652 69.2661L61.4478 69.3959C61.5807 69.3347 61.721 69.2911 61.8652 69.2661Z" fill="white" stroke="black" stroke-width="2" stroke-linecap="round" stroke-linejoin="round"/>
</g>
</svg>
